<svg id="Layer_1" data-name="Layer 1" xmlns="http://www.w3.org/2000/svg" viewBox="0 0 1246.12 165.35"><defs><style>.cls-1{fill:#878787;}.cls-2{fill:#525252;}.cls-3{fill:#3f3f42;}.cls-4{opacity:0.96;}.cls-5{fill:#00bcd4;}</style></defs><path class="cls-1" d="M272.13,112.27c-3.07-18.23-5.5-26-13.18-26s-10.11,7.77-13.18,26c-1.46,8.65-.37,7.66-3,9.57-2.63-1.91-5.33-9.44-6.78-18.1-3-17.81-5.4-32-12.68-32.58v0l-.25,0-.25,0v0c-7.28.61-9.66,14.77-12.67,32.58-1.46,8.66-4.16,27.55-6.79,29.46C200.7,131.29,198,90.63,196.54,82c-3.07-18.23-5.5-32.63-13.19-32.63S173.24,63.75,170.18,82c-1.46,8.65-4.16,74-6.79,75.91-2.63-1.91-5.33-116.62-6.79-125.28-3-18-5.44-32.23-12.88-32.61-7.44.38-9.85,14.63-12.89,32.61-1.45,8.66-4.15,123.37-6.78,125.28-2.63-1.92-5.33-67.26-6.79-75.91-3.07-18.23-5.5-32.63-13.18-32.63S94,63.75,90.9,82c-1.47,8.65-4.16,49.31-6.79,51.22-2.63-1.91-5.33-20.8-6.79-29.46-3-17.81-5.39-32-12.67-32.58v0l-.25,0-.26,0v0c-7.28.61-9.67,14.77-12.67,32.58-1.46,8.66-4.16,16.19-6.79,18.1-2.63-1.91-1.54-.92-3-9.57-3.08-18.23-5.5-26-13.19-26s-10.11,7.77-13.17,26C13.84,120.92,2.63,103,0,104.88v7.46c7.68,0,18.62,19.55,21.7,1.32,1.45-8.65,4.15-18,6.78-19.92,2.64,1.91,4.53,3.75,6,12.42,3.07,18.22,3.23,20,10.28,21.45,7.52,1.56,10-4.24,13.11-22.47,1.41-8.38,4-23.62,6.53-26.31,2.55,2.69,5.12,17.93,6.53,26.31,3.08,18.23,5.5,35.53,13.19,35.53s10.11-39.08,13.19-57.3c1.45-8.66,4.15-24.64,6.78-26.55,2.63,1.92,5.33,17.9,6.79,26.55,3.07,18.22,5.5,82,13.18,82S134.17,52.24,137.24,34c1.4-8.31,3.95-23.39,6.48-26.25,2.53,2.86,5.07,17.94,6.47,26.25,3.08,18.24,5.5,131.35,13.2,131.35s10.11-63.76,13.18-82c1.45-8.65,4.15-24.63,6.78-26.55,2.64,1.91,5.33,17.89,6.79,26.55,3.08,18.22,5.5,57.3,13.19,57.3s10.11-17.3,13.18-35.53c1.41-8.38,4-23.62,6.54-26.31,2.55,2.69,5.12,17.93,6.53,26.31,3.07,18.23,5.58,24,13.11,22.47,7-1.46,7.2-3.23,10.28-21.45,1.46-8.67,3.35-10.51,6-12.42,2.63,1.92,5.33,11.27,6.79,19.92,3.08,18.23,14-1.32,21.7-1.32v-7.46C284.8,103,273.6,120.92,272.13,112.27Z"/><rect class="cls-2" x="357.22" y="8.02" width="5.67" height="149.3"/><path class="cls-3" d="M419.69,114.25v-11a17,17,0,0,0,3.54,2.43,28.08,28.08,0,0,0,4.35,1.83,35.55,35.55,0,0,0,4.6,1.15,24.54,24.54,0,0,0,4.24.4q6.76,0,10.07-2.25a7.42,7.42,0,0,0,3.32-6.54,7.12,7.12,0,0,0-1.11-4,11.54,11.54,0,0,0-3.08-3.08A32.36,32.36,0,0,0,441,90.47c-1.79-.85-3.71-1.75-5.75-2.68-2.19-1.17-4.24-2.36-6.13-3.56a26.43,26.43,0,0,1-4.94-4,16.87,16.87,0,0,1-3.29-4.94,16.16,16.16,0,0,1-1.19-6.44A14.82,14.82,0,0,1,421.7,61a17.37,17.37,0,0,1,5.41-5.55,24.79,24.79,0,0,1,7.64-3.25,36.64,36.64,0,0,1,8.75-1.06q10.14,0,14.78,2.3V64q-5.49-4-14.15-4a25.41,25.41,0,0,0-4.76.45A14.18,14.18,0,0,0,435.13,62a9.23,9.23,0,0,0-3,2.66,6.52,6.52,0,0,0-1.17,3.92,7.42,7.42,0,0,0,.9,3.74,9.51,9.51,0,0,0,2.64,2.89,26.94,26.94,0,0,0,4.24,2.55c1.66.82,3.59,1.72,5.79,2.68q3.38,1.75,6.38,3.69a30.12,30.12,0,0,1,5.27,4.29,18.91,18.91,0,0,1,3.61,5.2,15.4,15.4,0,0,1,1.33,6.52,16.05,16.05,0,0,1-2,8.29,15.88,15.88,0,0,1-5.34,5.5A23.57,23.57,0,0,1,446,117a43.65,43.65,0,0,1-9.24,1c-1.08,0-2.41-.09-4-.25s-3.19-.41-4.85-.72a46.63,46.63,0,0,1-4.69-1.15A15,15,0,0,1,419.69,114.25Z"/><path class="cls-3" d="M492.23,117.91q-10.68,0-17.06-6.47t-6.38-17.16q0-11.62,6.65-18.17t17.92-6.53q10.81,0,16.86,6.35t6,17.63q0,11.06-6.52,17.7T492.23,117.91Zm.49-40A12,12,0,0,0,483,82.2q-3.55,4.29-3.56,11.81,0,7.26,3.61,11.43a12.1,12.1,0,0,0,9.64,4.17q6.18,0,9.49-4.1t3.32-11.68q0-7.62-3.32-11.76T492.72,77.92Z"/><path class="cls-3" d="M551.47,57a9.55,9.55,0,0,0-4.83-1.22q-7.62,0-7.62,8.61v6.27h10.73v8.2H539.07v38H528.61v-38h-7.89v-8.2h7.89V63.18q0-7.3,4.78-11.52a17.39,17.39,0,0,1,11.94-4.22,17.82,17.82,0,0,1,6.14.86Z"/><path class="cls-3" d="M583.25,116.33a18.19,18.19,0,0,1-8.07,1.53q-13.44,0-13.44-12.89V78.86H554v-8.2h7.7V60l10.46-3V70.66h11v8.2h-11V102q0,4.1,1.49,5.86c1,1.17,2.65,1.75,5,1.75a7.21,7.21,0,0,0,4.6-1.53Z"/><path class="cls-3" d="M630.81,96.58H599.34q.18,6.4,3.95,9.87t10.34,3.48a22.86,22.86,0,0,0,13.57-4.42v8.43q-6.32,4-16.68,4-10.18,0-16-6.29t-5.79-17.7q0-10.77,6.38-17.56A20.86,20.86,0,0,1,611,69.58q9.46,0,14.65,6.08t5.19,16.91Zm-10.1-7.39q0-5.64-2.66-8.77a8.88,8.88,0,0,0-7.21-3.13,10.12,10.12,0,0,0-7.64,3.29,15,15,0,0,0-3.86,8.61Z"/><path class="cls-3" d="M673.82,114.7a25.75,25.75,0,0,1-13.12,3.21q-10.28,0-16.59-6.43T637.8,94.82q0-11.4,6.78-18.32t18.15-6.92a26.39,26.39,0,0,1,11.13,2.21v9.73a16.89,16.89,0,0,0-10.28-3.6,14.26,14.26,0,0,0-10.86,4.48q-4.25,4.48-4.24,11.75t4,11.31q4,4.16,10.71,4.15a16.78,16.78,0,0,0,10.64-4Z"/><path class="cls-3" d="M725.21,116.82H714.75V91.58q0-13.71-9.15-13.71a9.6,9.6,0,0,0-7.76,4A15.82,15.82,0,0,0,694.69,92v24.84H684.18V48.48h10.51V78.32h.18q5.22-8.75,15-8.74,15.36,0,15.37,18.8Z"/><path class="cls-3" d="M809.56,114.12q-7.3,3.78-18.17,3.79-14.07,0-22.54-8.89t-8.48-23.3q0-15.51,9.54-25.07T794,51.09q9.38,0,15.56,2.66V64.39a27.81,27.81,0,0,0-14.43-3.87q-10.5,0-17,6.71t-6.51,18q0,10.68,6.08,17t16,6.34a28.63,28.63,0,0,0,15.87-4.33Z"/><path class="cls-3" d="M841.11,117.91q-10.68,0-17.06-6.47t-6.38-17.16q0-11.62,6.65-18.17t17.92-6.53q10.82,0,16.86,6.35t6,17.63q0,11.06-6.51,17.7T841.11,117.91Zm.5-40a11.94,11.94,0,0,0-9.69,4.28q-3.57,4.29-3.57,11.81,0,7.26,3.61,11.43a12.12,12.12,0,0,0,9.65,4.17q6.18,0,9.49-4.1t3.31-11.68q0-7.62-3.31-11.76T841.61,77.92Z"/><path class="cls-3" d="M916.89,116.82H906.43v-26q0-12.93-9.15-12.94a10,10,0,0,0-7.89,3.59,13.31,13.31,0,0,0-3.11,9v26.32h-10.5V70.66h10.5v7.66h.18q5.19-8.75,15-8.74,7.53,0,11.5,4.89t4,14.13Z"/><path class="cls-3" d="M926.77,115.38v-9.69a20.87,20.87,0,0,0,12.93,4.46q9.48,0,9.47-5.59a4.42,4.42,0,0,0-.81-2.68,7.63,7.63,0,0,0-2.19-2,16.87,16.87,0,0,0-3.24-1.53l-4.17-1.54a43.9,43.9,0,0,1-5.12-2.39,15.38,15.38,0,0,1-3.79-2.86A10.94,10.94,0,0,1,927.58,88a13.36,13.36,0,0,1-.77-4.73,11,11,0,0,1,1.58-5.89,13.73,13.73,0,0,1,4.24-4.28,20.23,20.23,0,0,1,6-2.61,27.44,27.44,0,0,1,7-.88,31.64,31.64,0,0,1,11.45,1.94v9.15a19.29,19.29,0,0,0-11.18-3.34,14.64,14.64,0,0,0-3.59.41,9.45,9.45,0,0,0-2.73,1.12,5.59,5.59,0,0,0-1.75,1.74,4.15,4.15,0,0,0-.63,2.23,4.8,4.8,0,0,0,.63,2.53,5.63,5.63,0,0,0,1.87,1.82,15.52,15.52,0,0,0,3,1.44c1.16.44,2.49.91,4,1.42,2,.82,3.77,1.64,5.34,2.48a18.19,18.19,0,0,1,4,2.87,11.22,11.22,0,0,1,2.57,3.69,12.6,12.6,0,0,1,.9,5,11.43,11.43,0,0,1-1.62,6.13,13.54,13.54,0,0,1-4.33,4.32,19.86,19.86,0,0,1-6.24,2.55,32.24,32.24,0,0,1-7.46.84A31.46,31.46,0,0,1,926.77,115.38Z"/><path class="cls-3" d="M1009.72,116.82H999.26v-7.3h-.18a15.07,15.07,0,0,1-14.16,8.39q-16.36,0-16.36-19.66V70.66H979V97.17q0,12.43,9.6,12.44a9.7,9.7,0,0,0,7.64-3.43,13.11,13.11,0,0,0,3-9V70.66h10.46Z"/><path class="cls-3" d="M1033.83,116.82h-10.5V48.48h10.5Z"/><path class="cls-3" d="M1071.79,116.33a18.13,18.13,0,0,1-8.07,1.53q-13.42,0-13.43-12.89V78.86h-7.71v-8.2h7.71V60l10.46-3V70.66h11v8.2h-11V102c0,2.73.49,4.68,1.49,5.86s2.64,1.75,5,1.75a7.19,7.19,0,0,0,4.6-1.53Z"/><path class="cls-3" d="M1116.24,116.82H1106.1v-7.21h-.18q-4.79,8.3-14,8.3-6.81,0-10.66-3.7a13,13,0,0,1-3.86-9.78q0-13.08,15.06-15.24l13.7-1.94q0-9.87-9.37-9.87a22.27,22.27,0,0,0-14.88,5.68V73.91a32.4,32.4,0,0,1,16.86-4.33q17.49,0,17.49,17.22Zm-10.1-22.67-9.69,1.35a15.28,15.28,0,0,0-6.78,2.19q-2.28,1.59-2.28,5.61a6.15,6.15,0,0,0,2.1,4.8,8.09,8.09,0,0,0,5.61,1.87,10.35,10.35,0,0,0,7.91-3.36,11.89,11.89,0,0,0,3.13-8.45Z"/><path class="cls-3" d="M1170.11,116.82h-10.45v-26q0-12.93-9.16-12.94a10,10,0,0,0-7.88,3.59,13.27,13.27,0,0,0-3.12,9v26.32H1129V70.66h10.5v7.66h.18q5.19-8.75,15-8.74,7.53,0,11.5,4.89t4,14.13Z"/><path class="cls-3" d="M1207.22,116.33a18.19,18.19,0,0,1-8.07,1.53q-13.44,0-13.44-12.89V78.86H1178v-8.2h7.71V60l10.46-3V70.66h11v8.2h-11V102q0,4.1,1.49,5.86t5,1.75a7.22,7.22,0,0,0,4.6-1.53Z"/><path class="cls-3" d="M1213.35,115.38v-9.69a20.88,20.88,0,0,0,12.94,4.46q9.46,0,9.46-5.59a4.42,4.42,0,0,0-.81-2.68,7.63,7.63,0,0,0-2.19-2,16.87,16.87,0,0,0-3.24-1.53l-4.17-1.54a44.68,44.68,0,0,1-5.12-2.39,15.13,15.13,0,0,1-3.78-2.86,10.81,10.81,0,0,1-2.28-3.63,13.36,13.36,0,0,1-.77-4.73,11,11,0,0,1,1.58-5.89,13.73,13.73,0,0,1,4.24-4.28,20.23,20.23,0,0,1,6-2.61,27.44,27.44,0,0,1,7-.88,31.64,31.64,0,0,1,11.45,1.94v9.15a19.29,19.29,0,0,0-11.18-3.34,14.64,14.64,0,0,0-3.59.41,9.27,9.27,0,0,0-2.72,1.12,5.52,5.52,0,0,0-1.76,1.74,4.15,4.15,0,0,0-.63,2.23,4.8,4.8,0,0,0,.63,2.53,5.63,5.63,0,0,0,1.87,1.82,15.52,15.52,0,0,0,3,1.44c1.16.44,2.49.91,4,1.42,2,.82,3.77,1.64,5.35,2.48a18.35,18.35,0,0,1,4,2.87,11.22,11.22,0,0,1,2.57,3.69,12.6,12.6,0,0,1,.9,5,11.43,11.43,0,0,1-1.62,6.13,13.54,13.54,0,0,1-4.33,4.32,19.86,19.86,0,0,1-6.24,2.55,32.24,32.24,0,0,1-7.46.84A31.46,31.46,0,0,1,1213.35,115.38Z"/><g class="cls-4"><path class="cls-5" d="M148.36,41.18a61.83,61.83,0,0,1,10.51-2.56,74.43,74.43,0,0,1,11.46-.85q8.64,0,14.4.48l3.57.29a4,4,0,0,0,4.25-4.5l-2.19-17.32a8,8,0,0,0-7.59-7l-1.72-.08q-6.77-.27-16.16-.27-19.72,0-34.24,4.16T107.72,25.39a36.14,36.14,0,0,0-8.91,11.26,31.9,31.9,0,0,0-3.36,14.77A34.41,34.41,0,0,0,100,68.91q4.38,7.64,14.28,13.76h66.12q-2.07-1.5-4.4-2.88-6.3-3.62-12.86-6.61t-11.46-5.44q-7.47-3.94-10.46-7.41a11.19,11.19,0,0,1-3-7.42A10.35,10.35,0,0,1,141,45.66,16.58,16.58,0,0,1,148.36,41.18Z"/><path class="cls-5" d="M191.13,93.77a39.65,39.65,0,0,0-10.74-11.1H114.27l.7.43A106.87,106.87,0,0,0,128,89.93q7.62,3.41,12.11,5.65,7.24,3.73,10.24,7.2a12.69,12.69,0,0,1,3,8.59,11.39,11.39,0,0,1-2.72,7.73q-2.72,3.15-9.44,5.17a73.57,73.57,0,0,1-12.48,2.35,113,113,0,0,1-12.48.85q-6.72,0-15.2-.48c-2.2-.12-4-.23-5.51-.33a4,4,0,0,0-4.25,4V148a8,8,0,0,0,8,8H123a161.71,161.71,0,0,0,27.47-2.34q13.6-2.36,22.88-7.26a47.19,47.19,0,0,0,16.69-14,33.58,33.58,0,0,0,6.14-20.22A33.83,33.83,0,0,0,191.13,93.77Z"/></g></svg>